<svg width="113" height="30" viewBox="0 0 113 30" fill="none" xmlns="http://www.w3.org/2000/svg">
<path d="M15 21C11.6863 21 9 18.3137 9 15C9 11.6863 11.6863 9 15 9C18.3137 9 21 11.6863 21 15C21 18.3137 18.3137 21 15 21Z" fill="#1901F3"/>
<path d="M3.37623 17.0496C1.63748 17.3562 0.445659 19.0358 1.11311 20.6704C2.04495 22.9524 3.53158 24.9856 5.45889 26.5744C8.2148 28.8461 11.6908 30.06 15.2618 29.9977C18.8328 29.9354 22.2644 28.6009 24.9394 26.2343C26.81 24.5793 28.2248 22.4954 29.0765 20.1823C29.6865 18.5254 28.4367 16.8884 26.6883 16.6427C24.94 16.397 23.3702 17.6696 22.5066 19.2096C22.0385 20.0443 21.4308 20.8016 20.7028 21.4457C19.168 22.8036 17.1991 23.5692 15.1503 23.605C13.1014 23.6407 11.107 22.9443 9.5258 21.6408C8.7757 21.0225 8.142 20.2869 7.64502 19.469C6.72823 17.9601 5.11498 16.743 3.37623 17.0496Z" fill="#AABB14"/>
<path d="M29.884 16.8745C29.9606 16.2604 30 15.6348 30 15C30 6.71573 23.2843 0 15 0C6.71573 0 0 6.71573 0 15C0 15.8147 0.06495 16.6142 0.18996 17.3937C0.87894 16.4505 1.95426 15.7772 3.11576 15.5724C4.37245 15.3508 5.51458 15.6556 6.48027 16.2253C6.42322 15.8251 6.3937 15.416 6.3937 15C6.3937 10.2469 10.2469 6.3937 15 6.3937C19.7531 6.3937 23.6063 10.2469 23.6063 15C23.6063 15.3134 23.5895 15.6229 23.5569 15.9276C24.5022 15.3243 25.6332 14.9796 26.8971 15.1573C28.0647 15.3214 29.1625 15.9564 29.884 16.8745Z" fill="#DBF301"/>
<path d="M50.264 22V12H47.176V10.08H55.496V12H52.456V22H50.264Z" fill="black"/>
<path d="M59.8239 22V10.08H64.2559C65.0665 10.08 65.7812 10.2293 66.3999 10.528C67.0292 10.816 67.5199 11.2427 67.8719 11.808C68.2239 12.3627 68.3999 13.04 68.3999 13.84C68.3999 14.6613 68.2025 15.36 67.8079 15.936C67.4239 16.512 66.9012 16.9387 66.2399 17.216L68.9759 22H66.5119L63.5839 16.768L64.9919 17.6H61.9999V22H59.8239ZM61.9999 15.68H64.2879C64.6825 15.68 65.0239 15.6053 65.3119 15.456C65.5999 15.296 65.8239 15.0773 65.9839 14.8C66.1439 14.5227 66.2239 14.2027 66.2239 13.84C66.2239 13.4667 66.1439 13.1467 65.9839 12.88C65.8239 12.6027 65.5999 12.3893 65.3119 12.24C65.0239 12.08 64.6825 12 64.2879 12H61.9999V15.68Z" fill="black"/>
<path d="M72.426 22L76.538 10.08H79.354L83.466 22H81.098L80.25 19.44H75.642L74.778 22H72.426ZM76.266 17.52H79.626L77.642 11.584H78.25L76.266 17.52Z" fill="black"/>
<path d="M92.9082 22.192C92.0549 22.192 91.2656 22.0373 90.5403 21.728C89.8256 21.4187 89.1963 20.9867 88.6523 20.432C88.1189 19.8773 87.7029 19.2267 87.4043 18.48C87.1056 17.7333 86.9563 16.9173 86.9563 16.032C86.9563 15.1467 87.1003 14.3307 87.3883 13.584C87.6869 12.8267 88.1029 12.176 88.6363 11.632C89.1803 11.0773 89.8149 10.6507 90.5403 10.352C91.2656 10.0427 92.0549 9.888 92.9082 9.888C93.7616 9.888 94.5243 10.032 95.1963 10.32C95.8789 10.608 96.4549 10.992 96.9242 11.472C97.3936 11.9413 97.7296 12.4587 97.9323 13.024L95.9802 13.936C95.7562 13.3387 95.3776 12.848 94.8443 12.464C94.3109 12.0693 93.6656 11.872 92.9082 11.872C92.1616 11.872 91.5002 12.048 90.9242 12.4C90.3589 12.752 89.9163 13.2373 89.5963 13.856C89.2869 14.4747 89.1322 15.2 89.1322 16.032C89.1322 16.864 89.2869 17.5947 89.5963 18.224C89.9163 18.8427 90.3589 19.328 90.9242 19.68C91.5002 20.032 92.1616 20.208 92.9082 20.208C93.6656 20.208 94.3109 20.016 94.8443 19.632C95.3776 19.2373 95.7562 18.7413 95.9802 18.144L97.9323 19.056C97.7296 19.6213 97.3936 20.144 96.9242 20.624C96.4549 21.0933 95.8789 21.472 95.1963 21.76C94.5243 22.048 93.7616 22.192 92.9082 22.192Z" fill="black"/>
<path d="M102.699 22V10.08H104.875V16.288L104.283 16.08L109.355 10.08H112.091L107.339 15.712L107.467 14.176L112.235 22H109.675L106.475 16.752L104.875 18.656V22H102.699Z" fill="black"/>
</svg>
