<svg width="113" height="30" viewBox="0 0 113 30" fill="none" xmlns="http://www.w3.org/2000/svg">
<path d="M15 21C11.6863 21 9 18.3137 9 15C9 11.6863 11.6863 9 15 9C18.3137 9 21 11.6863 21 15C21 18.3137 18.3137 21 15 21Z" fill="#1901F3"/>
<path d="M3.37629 17.0496C1.63754 17.3562 0.44572 19.0358 1.11317 20.6704C2.04501 22.9524 3.53164 24.9856 5.45895 26.5744C8.21486 28.8461 11.6909 30.06 15.2619 29.9977C18.8329 29.9354 22.2645 28.6009 24.9395 26.2343C26.8101 24.5793 28.2249 22.4954 29.0766 20.1823C29.6866 18.5254 28.4368 16.8884 26.6884 16.6427C24.9401 16.397 23.3703 17.6696 22.5067 19.2096C22.0386 20.0443 21.4309 20.8016 20.7029 21.4457C19.1681 22.8036 17.1992 23.5692 15.1504 23.605C13.1015 23.6407 11.1071 22.9443 9.52586 21.6408C8.77576 21.0225 8.14206 20.2869 7.64508 19.469C6.72829 17.9601 5.11504 16.743 3.37629 17.0496Z" fill="#AABB14"/>
<path d="M29.884 16.8745C29.9606 16.2604 30 15.6348 30 15C30 6.71573 23.2843 0 15 0C6.71573 0 0 6.71573 0 15C0 15.8147 0.06495 16.6142 0.18996 17.3937C0.87894 16.4505 1.95426 15.7772 3.11576 15.5724C4.37245 15.3508 5.51458 15.6556 6.48027 16.2253C6.42322 15.8251 6.3937 15.416 6.3937 15C6.3937 10.2469 10.2469 6.3937 15 6.3937C19.7531 6.3937 23.6063 10.2469 23.6063 15C23.6063 15.3134 23.5895 15.6229 23.5569 15.9276C24.5022 15.3243 25.6332 14.9796 26.8971 15.1573C28.0647 15.3214 29.1625 15.9564 29.884 16.8745Z" fill="#DBF301"/>
<path d="M50.264 22V12H47.176V10.08H55.496V12H52.456V22H50.264ZM59.8239 22V10.08H64.2559C65.0665 10.08 65.7812 10.2293 66.3999 10.528C67.0292 10.816 67.5199 11.2427 67.8719 11.808C68.2239 12.3627 68.3999 13.04 68.3999 13.84C68.3999 14.6613 68.2025 15.36 67.8079 15.936C67.4239 16.512 66.9012 16.9387 66.2399 17.216L68.9759 22H66.5119L63.5839 16.768L64.9919 17.6H61.9999V22H59.8239ZM61.9999 15.68H64.2879C64.6825 15.68 65.0239 15.6053 65.3119 15.456C65.5999 15.296 65.8239 15.0773 65.9839 14.8C66.1439 14.5227 66.2239 14.2027 66.2239 13.84C66.2239 13.4667 66.1439 13.1467 65.9839 12.88C65.8239 12.6027 65.5999 12.3893 65.3119 12.24C65.0239 12.08 64.6825 12 64.2879 12H61.9999V15.68ZM72.426 22L76.538 10.08H79.354L83.466 22H81.098L80.25 19.44H75.642L74.778 22H72.426ZM76.266 17.52H79.626L77.642 11.584H78.25L76.266 17.52ZM92.9083 22.192C92.0549 22.192 91.2656 22.0373 90.5403 21.728C89.8256 21.4187 89.1963 20.9867 88.6523 20.432C88.1189 19.8773 87.7029 19.2267 87.4043 18.48C87.1056 17.7333 86.9563 16.9173 86.9563 16.032C86.9563 15.1467 87.1003 14.3307 87.3883 13.584C87.6869 12.8267 88.1029 12.176 88.6363 11.632C89.1803 11.0773 89.8149 10.6507 90.5403 10.352C91.2656 10.0427 92.0549 9.888 92.9083 9.888C93.7616 9.888 94.5243 10.032 95.1962 10.32C95.8789 10.608 96.4549 10.992 96.9243 11.472C97.3936 11.9413 97.7296 12.4587 97.9323 13.024L95.9803 13.936C95.7563 13.3387 95.3776 12.848 94.8443 12.464C94.3109 12.0693 93.6656 11.872 92.9083 11.872C92.1616 11.872 91.5003 12.048 90.9243 12.4C90.3589 12.752 89.9163 13.2373 89.5963 13.856C89.2869 14.4747 89.1323 15.2 89.1323 16.032C89.1323 16.864 89.2869 17.5947 89.5963 18.224C89.9163 18.8427 90.3589 19.328 90.9243 19.68C91.5003 20.032 92.1616 20.208 92.9083 20.208C93.6656 20.208 94.3109 20.016 94.8443 19.632C95.3776 19.2373 95.7563 18.7413 95.9803 18.144L97.9323 19.056C97.7296 19.6213 97.3936 20.144 96.9243 20.624C96.4549 21.0933 95.8789 21.472 95.1962 21.76C94.5243 22.048 93.7616 22.192 92.9083 22.192ZM102.699 22V10.08H104.875V16.288L104.283 16.08L109.355 10.08H112.091L107.339 15.712L107.467 14.176L112.235 22H109.675L106.475 16.752L104.875 18.656V22H102.699Z" fill="#FFFAFA"/>
</svg>
